<svg xmlns="http://www.w3.org/2000/svg" width="553.565" height="111.303" viewBox="0 0 553.565 111.303">
  <g id="Grupo_68" data-name="Grupo 68" transform="translate(-28.603 -47.964)">
    <g id="Grupo_5" data-name="Grupo 5" transform="translate(28.603 66.195)">
      <g id="Grupo_2" data-name="Grupo 2" transform="translate(166.355 16.06)">
        <g id="Grupo_1" data-name="Grupo 1">
          <path id="Trazado_1" data-name="Trazado 1" d="M90.311,86.933s4.509,4.113,10.365,4.113c2.055,0,4.033-.554,4.033-1.9,0-3.562-19.068-3.958-19.068-17.251,0-7.673,7.36-12.42,16.775-12.42,9.5,0,14.321,4.667,14.321,4.667l-4.667,9.734a16.281,16.281,0,0,0-9.653-3.324c-2.058,0-4.036.554-4.036,1.978,0,3.086,19.068,3.559,19.068,16.694,0,6.964-6.171,12.9-16.694,12.9a24.532,24.532,0,0,1-16.3-6.014Z" transform="translate(-84.455 -59.477)" fill="#313a45"/>
          <path id="Trazado_2" data-name="Trazado 2" d="M96.276,59.795h14.4l6.329,21.68a69.408,69.408,0,0,1,1.5,7.044h.158s.712-4.352,1.5-7.044l6.249-21.68H140.9l-13.847,40.752h-16.7Z" transform="translate(-61.067 -58.848)" fill="#313a45"/>
        </g>
      </g>
      <g id="Grupo_4" data-name="Grupo 4">
        <g id="Grupo_3" data-name="Grupo 3">
          <path id="Trazado_3" data-name="Trazado 3" d="M47.07,109.979c6.347,0,11.714-2.684,11.714-10.085V97.452a19.86,19.86,0,0,1,.164-2.2h-.164c-2.439,3.661-6.02,5.611-11.551,5.611-11.878,0-18.63-9.6-18.63-20.986S35.031,59.22,46.989,59.22c9.031,0,12.283,5.287,12.283,5.287h.244a7.5,7.5,0,0,1-.083-1.138V60.194h9.683V99.162c0,14.234-11.065,19.6-21.883,19.6a33.042,33.042,0,0,1-14.726-3.58L35.6,107.3A27.889,27.889,0,0,0,47.07,109.979ZM59.028,79.962C59.028,70.526,54.391,68,48.779,68c-6.267,0-9.763,4.557-9.763,11.551,0,7.244,3.744,12.611,10.413,12.611C54.391,92.165,59.028,89.318,59.028,79.962Z" transform="translate(-28.603 -43.925)" fill="#313a45"/>
          <path id="Trazado_4" data-name="Trazado 4" d="M67.77,59.22c12.691,0,22.86,9.028,22.86,21.719,0,12.772-10.169,21.719-22.779,21.719-12.691,0-22.857-8.947-22.857-21.719C44.993,68.248,55.159,59.22,67.77,59.22Zm.08,34.655c6.672,0,12.283-5.206,12.283-12.936C80.133,73.29,74.522,68,67.85,68,61.1,68,55.486,73.29,55.486,80.939,55.486,88.668,61.1,93.875,67.85,93.875Z" transform="translate(3.824 -43.925)" fill="#313a45"/>
          <path id="Trazado_5" data-name="Trazado 5" d="M63.1,54.085H73.435V71.9a34.9,34.9,0,0,1-.164,3.5h.164S77.1,69.38,85.88,69.38c11.226,0,18.386,8.864,18.386,21.719,0,13.177-8.054,21.719-19.036,21.719a14.645,14.645,0,0,1-12.367-6.18H72.7a24.111,24.111,0,0,1,.161,2.844v2.362H63.1Zm20.337,50.03c5.695,0,10.413-4.638,10.413-12.855,0-7.89-4.229-13.016-10.329-13.016-5.37,0-10.413,3.908-10.413,13.1C73.111,97.771,76.527,104.115,83.44,104.115Z" transform="translate(39.655 -54.085)" fill="#313a45"/>
        </g>
      </g>
    </g>
    <g id="Grupo_6" data-name="Grupo 6" transform="translate(323.813 77.049)">
      <path id="Trazado_6" data-name="Trazado 6" d="M127.717,59.1h2.49l4.072,11.61c.3.885.628,2.258.628,2.258h.048s.325-1.373.628-2.258L139.7,59.1h2.442L136.1,75.53H133.79Z" transform="translate(-127.717 -55.009)" fill="#313a45"/>
      <path id="Trazado_7" data-name="Trazado 7" d="M138.582,60.572c3.327,0,5.1,2.466,5.1,5.516,0,.3-.068.977-.068.977h-8.587a3.848,3.848,0,0,0,4.048,3.887,5.612,5.612,0,0,0,3.491-1.373l.932,1.65a7.009,7.009,0,0,1-4.563,1.677A6,6,0,0,1,132.7,66.74C132.7,62.994,135.231,60.572,138.582,60.572Zm2.794,4.8a2.78,2.78,0,0,0-2.838-3,3.374,3.374,0,0,0-3.446,3Z" transform="translate(-117.866 -52.104)" fill="#313a45"/>
      <path id="Trazado_8" data-name="Trazado 8" d="M137.307,60.852h2.186V62.41a8.645,8.645,0,0,1-.045.864h.045a4.8,4.8,0,0,1,4.423-2.7c2.767,0,4.048,1.513,4.048,4.515v7.539h-2.258V65.6c0-1.653-.348-2.955-2.234-2.955a3.856,3.856,0,0,0-3.723,2.883,5.58,5.58,0,0,0-.185,1.585v5.513h-2.258Z" transform="translate(-108.743 -52.104)" fill="#313a45"/>
      <path id="Trazado_9" data-name="Trazado 9" d="M143.2,64.792h-1.537V62.978h1.605v-3.4h2.189v3.4H148.3v1.814h-2.838v5.236a2.339,2.339,0,0,0,2.511,2.654,2.649,2.649,0,0,0,.536-.048v2a6.407,6.407,0,0,1-.789.045c-1.513,0-4.515-.465-4.515-4.4Z" transform="translate(-100.115 -54.067)" fill="#313a45"/>
      <path id="Trazado_10" data-name="Trazado 10" d="M151.595,65.272h.512v-.208a2.288,2.288,0,0,0-2.582-2.582,5.969,5.969,0,0,0-3.282,1.141l-.929-1.653a7.378,7.378,0,0,1,4.4-1.4c2.978,0,4.655,1.629,4.655,4.608v7.446h-2.094V71.509a9.119,9.119,0,0,1,.045-.929h-.045a4.077,4.077,0,0,1-3.771,2.326c-2.025,0-4-1.233-4-3.583C144.5,65.436,149.617,65.272,151.595,65.272Zm-2.606,5.82c1.909,0,3.142-2,3.142-3.747v-.372h-.581c-1.7,0-4.772.116-4.772,2.234A1.974,1.974,0,0,0,148.989,71.092Z" transform="translate(-94.518 -52.104)" fill="#313a45"/>
      <path id="Trazado_11" data-name="Trazado 11" d="M148.945,60.852h2.186V62.41a8.1,8.1,0,0,1-.048.864h.048a4.792,4.792,0,0,1,4.42-2.7c2.77,0,4.051,1.513,4.051,4.515v7.539h-2.258V65.6c0-1.653-.349-2.955-2.234-2.955a3.854,3.854,0,0,0-3.723,2.883,5.576,5.576,0,0,0-.188,1.585v5.513h-2.255Z" transform="translate(-85.718 -52.104)" fill="#313a45"/>
      <path id="Trazado_12" data-name="Trazado 12" d="M153.65,59.1h2.279v2.3H153.65Zm.024,4.652h2.255V75.53h-2.255Z" transform="translate(-76.409 -55.009)" fill="#313a45"/>
      <path id="Trazado_13" data-name="Trazado 13" d="M155.557,59.1h2.258V71.923c0,1.421.557,1.677,1.257,1.677a3.459,3.459,0,0,0,.393-.024v2a6.592,6.592,0,0,1-.745.045c-1.278,0-3.163-.348-3.163-3.3Z" transform="translate(-72.636 -55.009)" fill="#313a45"/>
      <path id="Trazado_14" data-name="Trazado 14" d="M157.628,59.1h2.258V71.923c0,1.421.56,1.677,1.257,1.677a3.548,3.548,0,0,0,.4-.024v2a6.591,6.591,0,0,1-.745.045c-1.281,0-3.166-.348-3.166-3.3Z" transform="translate(-68.538 -55.009)" fill="#313a45"/>
      <path id="Trazado_15" data-name="Trazado 15" d="M166.524,65.272h.512v-.208a2.288,2.288,0,0,0-2.582-2.582,5.969,5.969,0,0,0-3.282,1.141l-.929-1.653a7.378,7.378,0,0,1,4.4-1.4c2.979,0,4.655,1.629,4.655,4.608v7.446h-2.1V71.509a8.57,8.57,0,0,1,.048-.929H167.2a4.07,4.07,0,0,1-3.768,2.326c-2.025,0-4-1.233-4-3.583C159.426,65.436,164.546,65.272,166.524,65.272Zm-2.606,5.82c1.909,0,3.142-2,3.142-3.747v-.372h-.584c-1.7,0-4.769.116-4.769,2.234A1.974,1.974,0,0,0,163.918,71.092Z" transform="translate(-64.981 -52.104)" fill="#313a45"/>
      <path id="Trazado_16" data-name="Trazado 16" d="M165.96,61.824h2.305V72.434c0,2.514,1.629,3.979,4.14,3.979,2.538,0,4.191-1.465,4.191-4.027V61.824h2.3V72.434c0,3.655-2.63,6.1-6.469,6.1s-6.469-2.442-6.469-6.1Zm7.145-4.1h2.419l-2.234,2.955H171.4Z" transform="translate(-52.054 -57.729)" fill="#313a45"/>
      <path id="Trazado_17" data-name="Trazado 17" d="M171.549,60.852h2.186V62.41a8.643,8.643,0,0,1-.045.864h.045a4.8,4.8,0,0,1,4.423-2.7c2.77,0,4.048,1.513,4.048,4.515v7.539h-2.258V65.6c0-1.653-.349-2.955-2.234-2.955a3.856,3.856,0,0,0-3.723,2.883,5.688,5.688,0,0,0-.185,1.585v5.513h-2.258Z" transform="translate(-40.996 -52.104)" fill="#313a45"/>
      <path id="Trazado_18" data-name="Trazado 18" d="M176.254,59.1h2.282v2.3h-2.282Zm.024,4.652h2.258V75.53h-2.258Z" transform="translate(-31.687 -55.009)" fill="#313a45"/>
      <path id="Trazado_19" data-name="Trazado 19" d="M184.232,60.572a5.971,5.971,0,0,1,4.423,1.722l-1.072,1.585a4.771,4.771,0,0,0-3.258-1.349,4.011,4.011,0,0,0-4.1,4.188,4.082,4.082,0,0,0,4.167,4.235,5.338,5.338,0,0,0,3.631-1.585l.905,1.653a6.448,6.448,0,0,1-4.7,1.885,6.168,6.168,0,1,1,0-12.334Z" transform="translate(-28.377 -52.104)" fill="#313a45"/>
      <path id="Trazado_20" data-name="Trazado 20" d="M189.261,65.272h.512v-.208a2.288,2.288,0,0,0-2.582-2.582,5.982,5.982,0,0,0-3.282,1.141l-.929-1.653a7.378,7.378,0,0,1,4.4-1.4c2.979,0,4.655,1.629,4.655,4.608v7.446h-2.094V71.509a9.128,9.128,0,0,1,.045-.929h-.045a4.077,4.077,0,0,1-3.771,2.326c-2.025,0-4-1.233-4-3.583C182.163,65.436,187.283,65.272,189.261,65.272Zm-2.606,5.82c1.909,0,3.142-2,3.142-3.747v-.372h-.581c-1.7,0-4.772.116-4.772,2.234A1.974,1.974,0,0,0,186.655,71.092Z" transform="translate(-19.996 -52.104)" fill="#313a45"/>
      <path id="Trazado_21" data-name="Trazado 21" d="M193.691,63.476a3.914,3.914,0,0,1,3.628,1.862h.048a6.49,6.49,0,0,1-.048-.789V59.1h2.258V75.53h-2.142V74.413c0-.465.024-.789.024-.789h-.045a4.128,4.128,0,0,1-3.863,2.186c-3.19,0-5.189-2.514-5.189-6.165C188.362,65.9,190.572,63.476,193.691,63.476Zm.3,10.38c1.745,0,3.4-1.233,3.4-4.235,0-2.094-1.093-4.188-3.327-4.188-1.862,0-3.4,1.534-3.4,4.212C190.664,72.2,192.037,73.856,193.991,73.856Z" transform="translate(-7.731 -55.009)" fill="#313a45"/>
      <path id="Trazado_22" data-name="Trazado 22" d="M198.931,60.572c3.327,0,5.1,2.466,5.1,5.516,0,.3-.071.977-.071.977h-8.584a3.848,3.848,0,0,0,4.048,3.887,5.612,5.612,0,0,0,3.491-1.373l.929,1.65a7.006,7.006,0,0,1-4.56,1.677,6,6,0,0,1-6.237-6.165C193.043,62.994,195.581,60.572,198.931,60.572Zm2.791,4.8a2.777,2.777,0,0,0-2.839-3,3.372,3.372,0,0,0-3.443,3Z" transform="translate(1.53 -52.104)" fill="#313a45"/>
      <path id="Trazado_23" data-name="Trazado 23" d="M197.608,59.1h2.258V71.923c0,1.421.557,1.677,1.254,1.677a3.479,3.479,0,0,0,.4-.024v2a6.592,6.592,0,0,1-.745.045c-1.278,0-3.163-.348-3.163-3.3Z" transform="translate(10.562 -55.009)" fill="#313a45"/>
      <path id="Trazado_24" data-name="Trazado 24" d="M136.431,68.39a8.928,8.928,0,0,1,5.978,1.978l-1.162,1.722a7.562,7.562,0,0,0-4.632-1.605,5.983,5.983,0,0,0-6.189,6.329c0,3.815,2.606,6.445,6.049,6.445a6.72,6.72,0,0,0,4.655-2.049V78.836h-2.678v-2h4.772V85.1H141.2V84.072c0-.348.024-.7.024-.7h-.048a7.071,7.071,0,0,1-5.048,2c-4.42,0-8.075-3.491-8.075-8.518A8.277,8.277,0,0,1,136.431,68.39Z" transform="translate(-127.052 -36.636)" fill="#313a45"/>
      <path id="Trazado_25" data-name="Trazado 25" d="M140.268,69.952a6.17,6.17,0,1,1-6.353,6.145A6.142,6.142,0,0,1,140.268,69.952Zm0,10.38A4.216,4.216,0,1,0,136.22,76.1,4.07,4.07,0,0,0,140.268,80.332Z" transform="translate(-115.454 -33.546)" fill="#313a45"/>
      <path id="Trazado_26" data-name="Trazado 26" d="M139.081,68.483h2.258v5.376c0,.581-.045,1-.045,1h.045a4.159,4.159,0,0,1,3.771-2c3.163,0,5.165,2.514,5.165,6.165,0,3.747-2.258,6.168-5.352,6.168a4.23,4.23,0,0,1-3.7-2.025h-.048a7.718,7.718,0,0,1,.048.885v.861h-2.142ZM144.6,83.259c1.862,0,3.4-1.534,3.4-4.212,0-2.559-1.373-4.212-3.33-4.212-1.766,0-3.4,1.233-3.4,4.235C141.27,81.165,142.363,83.259,144.6,83.259Z" transform="translate(-105.233 -36.452)" fill="#313a45"/>
      <path id="Trazado_27" data-name="Trazado 27" d="M143.763,68.483h2.282v2.305h-2.282Zm.024,4.655h2.258V84.912h-2.258Z" transform="translate(-95.97 -36.452)" fill="#313a45"/>
      <path id="Trazado_28" data-name="Trazado 28" d="M151.329,69.952c3.327,0,5.1,2.466,5.1,5.516,0,.3-.068.977-.068.977H147.77a3.848,3.848,0,0,0,4.048,3.887,5.612,5.612,0,0,0,3.491-1.373l.932,1.65a7.009,7.009,0,0,1-4.563,1.677,6,6,0,0,1-6.234-6.168C145.444,72.373,147.979,69.952,151.329,69.952Zm2.794,4.8a2.78,2.78,0,0,0-2.839-3,3.374,3.374,0,0,0-3.446,3Z" transform="translate(-92.644 -33.546)" fill="#313a45"/>
      <path id="Trazado_29" data-name="Trazado 29" d="M150.055,70.139h2.186v2.046a8.808,8.808,0,0,1-.045.885h.045A4.027,4.027,0,0,1,155.964,70a3.937,3.937,0,0,1,.584.048v2.234a3.2,3.2,0,0,0-.652-.072,3.571,3.571,0,0,0-3.3,2.77,7.086,7.086,0,0,0-.28,2.118v4.816h-2.258Z" transform="translate(-83.522 -33.453)" fill="#313a45"/>
      <path id="Trazado_30" data-name="Trazado 30" d="M152.986,70.232h2.186V71.79a8,8,0,0,1-.048.861h.048a4.8,4.8,0,0,1,4.42-2.7c2.77,0,4.051,1.513,4.051,4.515v7.539h-2.258V74.98c0-1.653-.349-2.958-2.234-2.958a3.856,3.856,0,0,0-3.723,2.886,5.555,5.555,0,0,0-.188,1.582v5.516h-2.255Z" transform="translate(-77.723 -33.546)" fill="#313a45"/>
      <path id="Trazado_31" data-name="Trazado 31" d="M163.762,69.952a6.17,6.17,0,1,1-6.353,6.145A6.142,6.142,0,0,1,163.762,69.952Zm0,10.38a4.216,4.216,0,1,0-4.048-4.235A4.07,4.07,0,0,0,163.762,80.332Z" transform="translate(-68.972 -33.546)" fill="#313a45"/>
      <path id="Trazado_32" data-name="Trazado 32" d="M169.657,72.858a3.914,3.914,0,0,1,3.628,1.862h.048a6.489,6.489,0,0,1-.048-.789V68.483h2.258V84.912H173.4V83.8c0-.465.024-.792.024-.792h-.045a4.128,4.128,0,0,1-3.863,2.189c-3.19,0-5.191-2.514-5.191-6.168C164.326,75.28,166.539,72.858,169.657,72.858Zm.3,10.38c1.745,0,3.4-1.236,3.4-4.235,0-2.094-1.093-4.191-3.327-4.191-1.862,0-3.4,1.537-3.4,4.212C166.631,81.585,168,83.238,169.958,83.238Z" transform="translate(-55.286 -36.452)" fill="#313a45"/>
      <path id="Trazado_33" data-name="Trazado 33" d="M174.9,69.952c3.327,0,5.1,2.466,5.1,5.516,0,.3-.071.977-.071.977h-8.587a3.851,3.851,0,0,0,4.051,3.887,5.622,5.622,0,0,0,3.491-1.373l.929,1.65a7.005,7.005,0,0,1-4.56,1.677,6,6,0,0,1-6.237-6.168C169.008,72.373,171.546,69.952,174.9,69.952Zm2.791,4.8a2.777,2.777,0,0,0-2.839-3,3.372,3.372,0,0,0-3.443,3Z" transform="translate(-46.023 -33.546)" fill="#313a45"/>
      <path id="Trazado_34" data-name="Trazado 34" d="M175.784,68.483h9.543v2h-7.238v5.144h5.886v2h-5.886v5.281h7.631v2h-9.936Z" transform="translate(-32.617 -36.452)" fill="#313a45"/>
      <path id="Trazado_35" data-name="Trazado 35" d="M180.06,68.483h2.258V81.305c0,1.421.557,1.677,1.257,1.677a3.458,3.458,0,0,0,.393-.024v2a6.588,6.588,0,0,1-.745.045c-1.278,0-3.163-.348-3.163-3.3Z" transform="translate(-24.157 -36.452)" fill="#313a45"/>
      <path id="Trazado_36" data-name="Trazado 36" d="M185.226,81.466a6.483,6.483,0,0,0,4.188,1.769c1.537,0,2.839-.861,2.839-2.419,0-3.562-7.958-2.794-7.958-7.842,0-2.562,2.21-4.584,5.3-4.584a6.738,6.738,0,0,1,4.655,1.65L193.2,71.949a5.781,5.781,0,0,0-3.607-1.421c-1.742,0-2.978,1.1-2.978,2.4,0,3.4,7.958,2.49,7.958,7.819,0,2.538-1.954,4.632-5.212,4.632a7.681,7.681,0,0,1-5.445-2.165Z" transform="translate(-16.518 -36.636)" fill="#313a45"/>
      <path id="Trazado_37" data-name="Trazado 37" d="M195.232,74.652h.512v-.208a2.287,2.287,0,0,0-2.582-2.582A5.969,5.969,0,0,0,189.879,73l-.929-1.653a7.378,7.378,0,0,1,4.4-1.4c2.979,0,4.655,1.629,4.655,4.608v7.446h-2.1V80.889a8.559,8.559,0,0,1,.048-.929H195.9a4.07,4.07,0,0,1-3.768,2.326c-2.025,0-4-1.233-4-3.583C188.134,74.816,193.254,74.652,195.232,74.652Zm-2.606,5.817c1.909,0,3.142-2,3.142-3.744v-.372h-.584c-1.7,0-4.769.116-4.769,2.234A1.972,1.972,0,0,0,192.626,80.469Z" transform="translate(-8.183 -33.546)" fill="#313a45"/>
      <path id="Trazado_38" data-name="Trazado 38" d="M192.534,68.483h2.258V81.305c0,1.421.56,1.677,1.257,1.677a3.548,3.548,0,0,0,.4-.024v2A6.589,6.589,0,0,1,195.7,85c-1.281,0-3.166-.348-3.166-3.3Z" transform="translate(0.523 -36.452)" fill="#313a45"/>
      <path id="Trazado_39" data-name="Trazado 39" d="M194.114,70.046h2.395L199.371,78c.232.652.372,1.605.4,1.605h.048c.021,0,.185-.953.417-1.605l2.862-7.959h2.374L201.116,81.82H198.51Z" transform="translate(3.649 -33.36)" fill="#313a45"/>
      <path id="Trazado_40" data-name="Trazado 40" d="M205.354,74.652h.512v-.208a2.288,2.288,0,0,0-2.582-2.582A5.969,5.969,0,0,0,200,73l-.929-1.653a7.378,7.378,0,0,1,4.4-1.4c2.979,0,4.655,1.629,4.655,4.608v7.446H206.03V80.889a9.126,9.126,0,0,1,.045-.929h-.045a4.077,4.077,0,0,1-3.771,2.326c-2.025,0-4-1.233-4-3.583C198.256,74.816,203.376,74.652,205.354,74.652Zm-2.606,5.817c1.909,0,3.142-2,3.142-3.744v-.372h-.584c-1.7,0-4.769.116-4.769,2.234A1.972,1.972,0,0,0,202.748,80.469Z" transform="translate(11.844 -33.546)" fill="#313a45"/>
      <path id="Trazado_41" data-name="Trazado 41" d="M207.775,72.858A3.914,3.914,0,0,1,211.4,74.72h.048a6.493,6.493,0,0,1-.048-.789V68.483h2.258V84.912h-2.142V83.8c0-.465.024-.792.024-.792H211.5a4.128,4.128,0,0,1-3.863,2.189c-3.19,0-5.189-2.514-5.189-6.168C202.446,75.28,204.656,72.858,207.775,72.858Zm.3,10.38c1.745,0,3.4-1.236,3.4-4.235,0-2.094-1.093-4.191-3.327-4.191-1.862,0-3.4,1.537-3.4,4.212C204.748,81.585,206.121,83.238,208.075,83.238Z" transform="translate(20.134 -36.452)" fill="#313a45"/>
      <path id="Trazado_42" data-name="Trazado 42" d="M213.462,69.952a6.17,6.17,0,1,1-6.35,6.145A6.142,6.142,0,0,1,213.462,69.952Zm0,10.38a4.216,4.216,0,1,0-4.048-4.235A4.07,4.07,0,0,0,213.462,80.332Z" transform="translate(29.365 -33.546)" fill="#313a45"/>
      <path id="Trazado_43" data-name="Trazado 43" d="M212.278,70.139h2.186v2.046a8.273,8.273,0,0,1-.048.885h.048A4.027,4.027,0,0,1,218.187,70a3.872,3.872,0,0,1,.581.048v2.234a3.149,3.149,0,0,0-.649-.072,3.574,3.574,0,0,0-3.306,2.77,7.183,7.183,0,0,0-.28,2.118v4.816h-2.255Z" transform="translate(39.586 -33.453)" fill="#313a45"/>
    </g>
    <path id="Trazado_44" data-name="Trazado 44" d="M79.3,47.964v111.3h111.3V47.964Zm9.844,101.543V57.725h91.615v91.782Z" transform="translate(100.309 0)" fill="#004f91"/>
  </g>
</svg>
